<?xml version="1.0" encoding="utf-8"?>
<!-- Svg Vector Icons : http://www.onlinewebfonts.com/icon -->
<!DOCTYPE svg PUBLIC "-//W3C//DTD SVG 1.1//EN" "http://www.w3.org/Graphics/SVG/1.1/DTD/svg11.dtd">
<svg version="1.1" xmlns="http://www.w3.org/2000/svg" xmlns:xlink="http://www.w3.org/1999/xlink" x="0px" y="0px" viewBox="0 0 256 256" enable-background="new 0 0 256 256" xml:space="preserve">
<metadata> Svg Vector Icons : http://www.onlinewebfonts.com/icon </metadata>
<g><g><g><path fill="#FF0000" d="M46.7,13.6L43,17.3l2.8,3c3.7,4,22.9,26.3,32.7,38.1c22.2,26.7,48,59.8,47.5,61c-0.3,0.8-13.5,15.6-24.9,27.8C85.5,164,69.9,180,48.6,201.3l-20.1,20L32,226c4.2,5.5,9,11.3,12.7,15.3c2.8,3,5.7,4.8,7.8,4.8c3,0,4.2-1.2,17.6-17.7c22.1-27.5,43.6-54.8,61.5-78.4c4.6-6.1,8.5-11.1,8.7-11.2c0.4-0.1,2.8,3.2,12.8,18.1c14.6,21.6,33.9,52.7,44.7,72.1c2.5,4.4,5,8.5,5.6,9.1c3.3,3,8.9,0.8,13.8-5.5c2.8-3.6,6.6-10.1,8.7-14.8l1.7-3.9l-4-5.7c-17.8-25.3-38.9-52.7-58.7-76.4c-5-5.9-9.4-11.2-9.8-11.8c-0.8-1-0.7-1.1,1.2-4.3c10.4-16.7,29.7-51.2,38.6-69l3-6l-1.8-1.8c-1.1-1.1-1.9-1.6-2.2-1.3c-0.2,0.3-5.4,6.8-11.6,14.5c-12.3,15.4-24.5,30.3-35.2,43l-6.9,8.2l-3-3.4c-7.4-8.3-21.5-23.4-34.1-36.6C88.6,48,51,10,50.6,10C50.4,10,48.6,11.7,46.7,13.6z"/></g></g></g>
</svg>