<?xml version="1.0" encoding="utf-8"?>
<!-- Svg Vector Icons : http://www.onlinewebfonts.com/icon -->
<!DOCTYPE svg PUBLIC "-//W3C//DTD SVG 1.1//EN" "http://www.w3.org/Graphics/SVG/1.1/DTD/svg11.dtd">
<svg version="1.1" xmlns="http://www.w3.org/2000/svg" xmlns:xlink="http://www.w3.org/1999/xlink" x="0px" y="0px" viewBox="0 0 256 256" enable-background="new 0 0 256 256" xml:space="preserve">
<metadata> Svg Vector Icons : http://www.onlinewebfonts.com/icon </metadata>
<g><g><g><path fill="#5B58AD" d="M225.1,25.2c-3.2,0.8-5.6,1.9-8.3,3.6c-2.1,1.4-10.7,10.9-91.1,101.5c-16.8,18.9-17.2,19.3-20.6,18.7c-0.8-0.1-15.9-8.5-33.5-18.7c-17.6-10.1-33.2-19-34.5-19.7c-8.4-4.2-18.1-3.1-23.5,2.5c-2.7,2.9-3.6,5.6-3.6,10.8c0,5.2,1.1,8.7,4,13.3c2.3,3.6,75.2,84.7,78.6,87.5c9.9,8,22.9,8.7,33.1,1.7c4.5-3.1,6.3-5.3,15.4-19c72.6-109.7,102.1-154.5,103-156.7c4.2-10.4,1-21.1-7.5-24.9C233.8,24.6,228.4,24.3,225.1,25.2z"/></g></g></g>
</svg>